<svg width="1949" height="512" viewBox="0 0 1949 512" fill="none" xmlns="http://www.w3.org/2000/svg">
<path fill-rule="evenodd" clip-rule="evenodd" d="M116.107 265.31C113.586 270.54 111.39 274.961 109.303 279.438C98.8614 301.861 90.2118 324.906 85.7478 349.319C83.264 362.897 81.9063 376.576 85.4569 390.207C88.5069 401.92 94.8541 407.934 105.712 408.431C110.464 408.653 115.435 407.647 120.062 406.344C132.312 402.879 142.97 396.187 153.277 388.938C155.78 387.176 158.339 386.076 161.461 387.236C166.991 389.291 168.993 396.615 164.329 400.092C147.496 412.617 129.681 423.418 107.868 424.087C90.0022 424.637 77.0701 415.067 71.3704 398.058C67.116 385.367 66.8657 372.314 68.4267 359.217C73.0628 320.232 88.1284 284.812 106.219 250.476C107.774 247.527 107.868 245.183 106.766 242.031C102.249 229.074 98.0481 216.006 93.9219 202.918C93.1399 200.437 92.339 199.731 89.6425 200.322C71.9179 204.214 54.456 208.967 38.7335 218.268C32.6616 221.86 26.8368 226.322 21.9817 231.415C13.9077 239.881 13.7545 249.251 20.3519 258.918C26.1079 267.356 34.2194 273.127 42.7783 278.341C45.4561 279.979 48.2809 281.372 50.9774 282.978C54.8971 285.318 56.2391 289.854 54.2277 293.629C52.2099 297.406 47.6834 298.902 43.5729 296.79C31.5479 290.617 20.3332 283.29 11.3395 273.011C5.8275 266.713 1.78894 259.633 0.453182 251.241C-1.21104 240.775 1.79207 231.552 8.08609 223.266C14.5772 214.728 23.1017 208.635 32.4082 203.574C48.9128 194.598 66.6968 189.237 84.9658 185.284C86.2171 185.013 87.4558 184.675 89.1513 184.253C88.2911 179.386 87.3682 174.662 86.63 169.903C83.6363 150.552 82.2567 131.184 87.0148 111.895C88.898 104.265 91.8541 97.0543 96.997 90.9776C107.495 78.5835 120.997 75.8248 136.138 79.5177C151.103 83.17 163.669 91.4462 175.388 101.078C178.704 103.803 178.794 108.724 176.088 111.895C173.326 115.128 169.031 115.55 165.271 112.991C159.365 108.977 153.621 104.687 147.484 101.06C140.451 96.9075 132.9 93.9613 124.485 93.9207C117.534 93.8863 112.131 96.7107 108.171 102.334C103.153 109.467 101.361 117.697 100.413 126.135C98.4078 143.984 100.788 161.53 104.27 178.992C104.642 180.848 105.356 181.504 107.311 181.307C121.419 179.901 135.531 178.498 149.661 177.321C152.733 177.067 154.738 175.958 156.643 173.553C175.006 150.386 195.136 128.935 218.817 111.036C232.009 101.066 245.948 92.3741 261.987 87.6283C272.035 84.6571 282.205 83.5574 292.324 87.1097C304.962 91.5462 312.026 101.138 315.667 113.516C319.528 126.657 318.924 140.054 317.357 153.448C316.928 156.879 316.377 160.294 315.705 163.686C314.826 168.304 311.397 170.75 306.78 170.213C302.582 169.725 299.842 166.354 300.283 161.674C300.893 155.219 302.366 148.799 302.432 142.357C302.51 134.733 302.347 126.913 300.758 119.509C297.445 104.112 286.781 98.0729 271.005 101.547C259.171 104.15 248.676 109.711 238.684 116.287C218.16 129.797 200.639 146.69 184.372 164.955C181.347 168.351 178.438 171.853 175.497 175.321C175.319 175.527 175.331 175.896 175.106 176.774H179.364C221.254 177.196 262.528 182.169 302.863 193.764C322.071 199.287 340.612 206.486 357.673 217.087C366.751 222.726 375.085 229.253 381.676 237.769C395.118 255.14 393.989 274.642 378.526 290.198C368.084 300.705 355.224 307.341 341.525 312.496C337.649 313.949 333.383 311.815 331.9 308.107C330.27 304.033 332.037 299.818 336.185 297.809C342.511 294.747 349.089 292.095 355.071 288.458C360.069 285.432 364.641 281.756 368.669 277.526C377.043 268.625 377.353 258.896 370.252 248.936C364.934 241.475 357.789 236.02 350.106 231.252C331.149 219.486 310.346 212.197 288.927 206.508C266.598 200.575 243.912 196.435 220.872 194.798C202.513 193.495 184.087 193.12 165.693 192.248C163.037 192.12 161.223 192.905 159.746 195.179C148.963 211.788 138.058 228.318 127.332 244.965C126.549 246.177 126.218 248.358 126.753 249.642C144.912 292.801 167.911 333.085 198.39 368.849C211.222 383.899 225.177 397.818 242.122 408.35C250.074 413.289 258.374 417.41 267.999 418.05C276.721 418.638 283.084 414.992 287.413 407.6C291.492 400.636 293.128 392.931 293.86 385.014C296.225 359.467 291.167 334.826 284.46 310.437C277.59 285.455 267.868 261.53 256.728 238.154C255.83 236.273 255.095 234.039 255.192 232.014C255.37 228.331 258.28 225.71 261.918 225.141C265.115 224.641 268.481 226.397 270.079 229.821C274.065 238.344 278.11 246.852 281.76 255.522C293.028 282.3 302.1 309.775 306.893 338.512C310.237 358.57 311.835 378.7 307.193 398.792C306.137 403.316 304.629 407.723 302.691 411.946C294.786 429.204 278.757 437.002 260.185 432.947C245.085 429.645 232.34 421.765 220.45 412.352C198.58 395.04 180.837 373.932 164.789 351.319C146.495 325.559 131.045 298.165 118.1 269.356C117.615 268.284 117.058 267.244 116.107 265.31ZM108.199 196.732L118.197 228.487C126.096 216.446 133.46 205.224 141.38 193.142L108.199 196.732ZM196.96 278.707C184.394 278.691 174.168 268.519 174.193 256.059C174.214 243.399 184.428 233.311 197.204 233.314C209.761 233.32 219.965 243.484 219.974 255.981C219.981 268.625 209.754 278.723 196.96 278.707Z" fill="#64FFDA"/>
<path d="M790.376 461H454.504L622.44 96.968L790.376 461ZM484.2 442.056H760.68L622.44 142.024L484.2 442.056ZM1148.9 461H874.976V104.648H1013.73C1043.42 104.648 1067.66 109.939 1086.43 120.52C1104.86 130.76 1119.2 144.755 1129.44 162.504C1139.68 180.253 1144.8 199.88 1144.8 221.384C1144.8 248.008 1136.61 271.901 1120.22 293.064C1103.84 313.885 1083.19 327.709 1058.27 334.536L1148.9 461ZM907.232 123.592L1046.5 318.152C1069.37 313.373 1088.31 301.939 1103.33 283.848C1118.35 265.757 1125.86 244.936 1125.86 221.384C1125.86 202.611 1121.25 185.544 1112.03 170.184C1102.82 154.824 1089.85 143.048 1073.12 134.856C1058.1 127.347 1038.47 123.592 1014.24 123.592H907.232ZM893.92 135.88V319.688H1025.5L893.92 135.88ZM893.92 442.056H1113.06L1038.3 338.12L1022.43 338.632H893.92V442.056ZM1252.44 104.648H1512.02V194.76H1345.62V239.816H1483.86V325.32H1345.62V370.888H1512.02V461H1252.44V104.648ZM1762 470.216C1712.51 470.216 1674.28 458.611 1647.31 435.4C1620.69 411.848 1607.55 376.691 1607.89 329.928H1691.34C1691 349.384 1696.81 364.232 1708.75 374.472C1720.7 384.712 1737.42 389.832 1758.93 389.832C1776.68 389.832 1790.67 386.931 1800.91 381.128C1811.15 375.325 1816.27 366.451 1816.27 354.504C1816.27 344.605 1810.98 337.437 1800.4 333C1790.16 328.563 1779.92 325.491 1769.68 323.784C1759.44 321.736 1753.13 320.541 1750.74 320.2C1724.45 315.08 1701.75 308.936 1682.64 301.768C1663.53 294.259 1647.48 282.995 1634.51 267.976C1621.54 252.957 1615.06 233.16 1615.06 208.584C1615.06 184.008 1621.54 163.187 1634.51 146.12C1647.48 128.712 1664.72 115.741 1686.22 107.208C1708.07 98.6747 1731.79 94.408 1757.39 94.408C1788.45 94.408 1815.25 100.211 1837.78 111.816C1860.65 123.421 1878.57 141 1891.54 164.552C1898.02 175.816 1901.95 186.739 1903.31 197.32C1904.68 207.56 1905.36 217.629 1905.36 227.528H1821.9C1821.9 209.096 1816.95 195.613 1807.06 187.08C1797.16 178.205 1781.8 173.768 1760.98 173.768C1744.25 173.768 1731.28 176.669 1722.06 182.472C1712.85 188.275 1708.24 196.125 1708.24 206.024C1708.24 216.947 1714.38 224.968 1726.67 230.088C1738.96 235.208 1754.49 239.816 1773.26 243.912C1803.98 250.056 1827.88 256.029 1844.94 261.832C1862.35 267.293 1877.37 277.192 1890 291.528C1902.63 305.864 1908.94 326.003 1908.94 351.944C1908.94 376.52 1902.12 397.683 1888.46 415.432C1874.81 433.181 1856.72 446.835 1834.19 456.392C1812.01 465.608 1787.94 470.216 1762 470.216Z" fill="#64FFDA"/>
</svg>
